<svg id="_6f0a18fad030e38fc7194c6a4c334793" data-name="6f0a18fad030e38fc7194c6a4c334793" xmlns="http://www.w3.org/2000/svg" width="30.694" height="26.215" viewBox="0 0 30.694 26.215">
  <path id="Path_1" data-name="Path 1" d="M32.454,81.5a9.147,9.147,0,0,0-7.107,3.558,9.141,9.141,0,0,0-7.1-3.552A8.229,8.229,0,0,0,10,90.076c0,5.725,5.077,9.722,8.785,12.641,1.4,1.109,2.434,1.892,3.273,2.531a25.7,25.7,0,0,1,2.706,2.227.832.832,0,0,0,1.171,0,38.324,38.324,0,0,1,4.112-3.342l1.854-1.406c3.069-2.34,8.792-6.687,8.792-12.707A8.2,8.2,0,0,0,32.454,81.5Zm-14.2,1.663a7.8,7.8,0,0,1,6.408,3.749.882.882,0,0,0,1.378,0,7.812,7.812,0,0,1,6.421-3.752,6.579,6.579,0,0,1,6.584,6.859c0,4.8-4.2,8.394-8.143,11.388l-1.854,1.4c-1.926,1.46-2.863,2.171-3.7,2.932-.611-.545-1.29-1.062-2.283-1.817-.8-.611-1.835-1.4-3.257-2.521C16.364,98.7,11.657,95,11.657,90.076A6.609,6.609,0,0,1,18.25,83.163Z" transform="translate(-10 -81.5)"/>
</svg>
