<svg id="_674aaa8a5939fb3fb007e77121fb1581" data-name="674aaa8a5939fb3fb007e77121fb1581" xmlns="http://www.w3.org/2000/svg" width="26.072" height="26.215" viewBox="0 0 26.072 26.215">
  <path id="Path_2" data-name="Path 2" d="M690.792,575.234a13.206,13.206,0,0,0-6.172-9.718,1.311,1.311,0,1,0-1.373,2.235,10.56,10.56,0,0,1,4.94,7.771,1.312,1.312,0,0,0,1.3,1.168,1.348,1.348,0,0,0,.146-.008A1.31,1.31,0,0,0,690.792,575.234Z" transform="translate(-664.728 -550.477)"/>
  <path id="Path_3" data-name="Path 3" d="M30.9,15.164a7.864,7.864,0,1,0-15.289,2.594A1.31,1.31,0,1,0,18.08,16.9a5.245,5.245,0,1,1,4.951,3.512A13.084,13.084,0,0,0,10,32.06a1.312,1.312,0,0,0,1.16,1.447,1.348,1.348,0,0,0,.146.008,1.31,1.31,0,0,0,1.3-1.168,10.463,10.463,0,0,1,10.421-9.319A7.873,7.873,0,0,0,30.9,15.164Z" transform="translate(-9.995 -7.3)"/>
</svg>
